<svg id="Ebene_1" data-name="Ebene 1" xmlns="http://www.w3.org/2000/svg" viewBox="0 0 353.5 190"><path d="M373.23,542.3q0-18.75,7.88-33.43a59.57,59.57,0,0,1,21.68-23.13,58.93,58.93,0,0,1,31.32-8.44A59.92,59.92,0,0,1,456,481.24a59.1,59.1,0,0,1,18,10.94V417.3h36V604.8H476l-.87-13.5a55.94,55.94,0,0,1-18.32,11.82,60.36,60.36,0,0,1-22.68,4.18,58.55,58.55,0,0,1-53-31.56Q373.24,561.06,373.23,542.3Zm37.25,0q0,14.51,9,24.13t22.75,9.62q13.75,0,22.75-9.62t9-24.13q0-14.49-9-24.12t-22.75-9.63q-13.75,0-22.75,9.63T410.48,542.3Z" transform="translate(-373.23 -417.3)"/><path d="M542.48,604.8V417.3h36V531.05a126.86,126.86,0,0,1,8.25-11.43q4.5-5.57,9.88-11.82l24.25-28h39.37l-48,56.13,57,68.87H625.11l-35.75-42.25L578.48,575.3v29.5Z" transform="translate(-373.23 -417.3)"/><path d="M686.73,587.3q0-9,5.5-14.5t14.5-5.5q9,0,14.5,5.5t5.5,14.5q0,9-5.5,14.5t-14.5,5.5q-9,0-14.5-5.5T686.73,587.3Z" transform="translate(-373.23 -417.3)"/></svg>